<svg xmlns="http://www.w3.org/2000/svg" width="180" height="32" fill="none" viewBox="0 0 352.15 64.17"><defs><style>.cls-1{fill:#fff;}</style></defs><g id="圖層_2" data-name="圖層 2"><g id="稿面"><path class="cls-1" d="M352.06,33.09v-.67a1,1,0,0,0-1-1H331.36a.37.37,0,0,1-.36-.37V27.64a.37.37,0,0,1,.36-.37h11.53A1.14,1.14,0,0,0,344,26.13V5.29a1.14,1.14,0,0,0-1.14-1.14H316.53a1.14,1.14,0,0,0-1.14,1.14V26.13a1.14,1.14,0,0,0,1.14,1.14H328a.37.37,0,0,1,.37.37v3.45a.37.37,0,0,1-.37.37h-19.4a1,1,0,0,0-1,1v.67a1,1,0,0,0,1,1h14.05a.36.36,0,0,1,.27.12.38.38,0,0,1,.09.29,34.28,34.28,0,0,1-14.86,24.33,1.14,1.14,0,0,0-.52,1,.4.4,0,0,0,.17.32.36.36,0,0,0,.22.07.32.32,0,0,0,.14,0A30.49,30.49,0,0,0,325.62,34.4a.38.38,0,0,1,.37-.35h2a.37.37,0,0,1,.37.37V58.84A1.14,1.14,0,0,0,329.5,60h.36A1.15,1.15,0,0,0,331,58.84V34.42a.37.37,0,0,1,.36-.37h19.73A1,1,0,0,0,352.06,33.09Zm-10.6-15.71v6.93a.36.36,0,0,1-.37.37h-9.73a.36.36,0,0,1-.36-.37V17.38a.37.37,0,0,1,.36-.37h9.73A.37.37,0,0,1,341.46,17.38Zm0-3.33a.36.36,0,0,1-.37.37h-9.73a.36.36,0,0,1-.36-.37V7.11a.36.36,0,0,1,.36-.37h9.73a.36.36,0,0,1,.37.37Zm-13.1,0a.36.36,0,0,1-.37.37h-9.66a.36.36,0,0,1-.37-.37V7.11a.36.36,0,0,1,.37-.37H328a.36.36,0,0,1,.37.37ZM318,17.38a.37.37,0,0,1,.37-.37H328a.37.37,0,0,1,.37.37v6.93a.36.36,0,0,1-.37.37h-9.66a.36.36,0,0,1-.37-.37Z"/><path class="cls-1" d="M352,59.27l-.32-.26c-3.29-2.64-12-9.67-16.06-22.3a.49.49,0,0,0-.58-.34.49.49,0,0,0-.4.54h0c1.32,13.16,9.88,19.88,16.82,23.21a.59.59,0,0,0,.22.05.52.52,0,0,0,.43-.24A.5.5,0,0,0,352,59.27Z"/><path class="cls-1" d="M281.45,54.69a28.77,28.77,0,0,1-10-7.51.06.06,0,0,1,0-.08,29.31,29.31,0,0,0,4.25-14.79V15.15a.84.84,0,0,0-.84-.84H266.1a.07.07,0,0,1-.07-.07V4.88a.84.84,0,0,0-.85-.84h-1a.84.84,0,0,0-.84.84v9.36a.07.07,0,0,1-.07.07h-4a.85.85,0,0,0-.84.84v1a.85.85,0,0,0,.84.84h4a.07.07,0,0,1,.07.07V32.1a21.9,21.9,0,0,0,5.15,15.28.09.09,0,0,1,0,.08,52.75,52.75,0,0,1-9.8,12,.86.86,0,0,0-.27.62v.31a.39.39,0,0,0,.21.35.47.47,0,0,0,.17,0,.34.34,0,0,0,.22-.07,48.12,48.12,0,0,0,11.06-11.52.05.05,0,0,1,.05,0,.07.07,0,0,1,.06,0,31.35,31.35,0,0,0,10.93,6.69.38.38,0,0,0,.36,0,.4.4,0,0,0,.17-.32v-.51A.39.39,0,0,0,281.45,54.69Zm-8.29-22.53c0,.22.29,5.42-3.26,12.74a.09.09,0,0,1-.07,0,.07.07,0,0,1-.06,0A22.6,22.6,0,0,1,266,32.25V17a.07.07,0,0,1,.07-.07h7a.07.07,0,0,1,.07.07V32.16Z"/><path class="cls-1" d="M303.13,18.73H291.91a11.77,11.77,0,0,0-.72-2c1.49-1,7.67-5.44,8.38-11.68a.88.88,0,0,0-.21-.66.84.84,0,0,0-.63-.28L282.22,4h0a.82.82,0,0,0-.59.24.84.84,0,0,0-.25.6v.91a.85.85,0,0,0,.84.84h13.63a.06.06,0,0,1,.05,0,.07.07,0,0,1,0,.06,19.89,19.89,0,0,1-5.36,8.77,9.83,9.83,0,0,0-5.84-4.36.57.57,0,0,0-.66.25.59.59,0,0,0,.06.71L290,18.72H278.68a.85.85,0,0,0-.84.84v.91a.85.85,0,0,0,.84.84H290V47.45A25.2,25.2,0,0,1,286.81,60a.39.39,0,0,0,0,.38.4.4,0,0,0,.33.18h.32a.38.38,0,0,0,.29-.13,21.46,21.46,0,0,0,4.9-13V21.3h7.62c-.1.94-.62,3.4-3.25,7.33a.43.43,0,0,0,0,.4.4.4,0,0,0,.34.2h.34a.73.73,0,0,0,.3-.06c.75-.35,4.57-2.46,5.84-9.6a.71.71,0,0,0-.16-.58A.7.7,0,0,0,303.13,18.73Z"/><path class="cls-1" d="M44.87,9.16A24.41,24.41,0,0,0,25.81,0,23.35,23.35,0,0,0,7.42,9.05C2.57,15.08,0,23.35,0,33,0,41.49,2.47,49.3,7,55A23.59,23.59,0,0,0,26,64.17a23.55,23.55,0,0,0,19.73-10c4.23-5.79,6.56-13.78,6.56-22.5S49.67,15,44.87,9.16ZM26,60.94a20.66,20.66,0,0,1-13.17-4.56l1-.43,1.41-.66.54-.29.27-.15c.4-.21.8-.44,1.19-.66l.44-.25,1-.67L20,52.39l.5-.37,1.74-1.34,1.13-1,.52-.46c.16-.14.32-.27.47-.42l.66-.65a45,45,0,0,0,4.91-5.71c.37-.51.74-1,1.09-1.54l1-1.58c.23-.34.43-.7.63-1l.33-.57.47-.82.44-.83c.56-1.07,1.05-2.12,1.63-3.38l.22-.52c.4-1,.82-2,1.17-3A59.94,59.94,0,0,0,39,22a58.34,58.34,0,0,0,1.16-7.35c.12-1.43.19-2.61.19-3.7,0-.61,0-1.29,0-2,5.41,5.07,8.72,13.12,8.72,22.71C49.08,46.26,42,60.94,26,60.94ZM3.23,33c0-17.51,9.29-29.73,22.58-29.73a20.89,20.89,0,0,1,13.7,5c-.47,2.09-1,4.08-1.53,6-.69,2.49-1.38,4.73-2.11,6.86-.8,2.32-1.65,4.56-2.53,6.64-1,2.32-2,4.41-3,6.39l-.83,1.55c-.11.18-.21.37-.32.56s-.36.65-.55,1l-.91,1.51c-.16.27-.33.52-.5.78s-.31.47-.45.7l-.17.27-.3.47-.51.71-.43.62c-.19.28-.38.56-.59.82L23.7,44.56c-.22.3-.46.59-.7.88l-.41.5c-.45.58-.95,1.14-1.43,1.69l-.86,1-1.45,1.52-.39.41-.65.63c-1.3,1.33-2.7,2.53-4.17,3.79L12.43,56C6.7,51.14,3.23,43,3.23,33Z"/><path class="cls-1" d="M23.57,22.42c.73,2,1.35,4,1.91,6s1,4.2,1.58,6.47a17,17,0,0,0,1.17-6.85,21.61,21.61,0,0,0-1.34-6.88,21.88,21.88,0,0,0-3.41-6.12,19.16,19.16,0,0,0-2.4-2.53,12.57,12.57,0,0,0-2.9-2c1.07,2.08,2.05,4,2.95,6S22.85,20.45,23.57,22.42Z"/><path class="cls-1" d="M16.43,33.91c.72,2,1.34,4,1.9,6.05s1,4.2,1.59,6.48a17.07,17.07,0,0,0,1.16-6.86,21.87,21.87,0,0,0-1.33-6.88,22.54,22.54,0,0,0-3.41-6.12,19.23,19.23,0,0,0-2.41-2.53,12.73,12.73,0,0,0-2.89-2c1.06,2.08,2,4,2.94,6S15.71,31.94,16.43,33.91Z"/><path class="cls-1" d="M70.58,59.84a.15.15,0,0,1,0,.09l-.09.06-.17,0h-.54l-.17,0-.09-.06a.16.16,0,0,1,0-.09v-8a.16.16,0,0,1,0-.09l.1-.06.17,0h.53l.17,0,.09.06a.15.15,0,0,1,0,.09Z"/><path class="cls-1" d="M80.67,52.14a1.15,1.15,0,0,1,0,.21.3.3,0,0,1,0,.15.19.19,0,0,1-.07.08.16.16,0,0,1-.09,0H78.1v7.23a.29.29,0,0,1,0,.09L78,60l-.17,0h-.54l-.17,0L77,59.93a.16.16,0,0,1,0-.09V52.61H74.65a.16.16,0,0,1-.16-.11.46.46,0,0,1,0-.15.65.65,0,0,1,0-.21.68.68,0,0,1,0-.21.39.39,0,0,1,0-.15.2.2,0,0,1,.06-.09.16.16,0,0,1,.1,0h5.8a.15.15,0,0,1,.09,0,.22.22,0,0,1,.07.09.27.27,0,0,1,0,.15A1.25,1.25,0,0,1,80.67,52.14Z"/><path class="cls-1" d="M86.1,51.51c0,.13,0,.26,0,.37s0,.21-.07.31a1.88,1.88,0,0,1-.12.3l-.18.3-.89,1.32a.31.31,0,0,1-.07.09l-.1.06a.58.58,0,0,1-.14,0h-.39a.24.24,0,0,1-.11,0,.09.09,0,0,1,0-.06.13.13,0,0,1,0-.1l.86-1.77v-.82a1,1,0,0,1,0-.27.33.33,0,0,1,.12-.16.37.37,0,0,1,.19-.08l.28,0,.28,0a.37.37,0,0,1,.19.08.31.31,0,0,1,.11.16A1,1,0,0,1,86.1,51.51Z"/><path class="cls-1" d="M95.23,57.67a2.26,2.26,0,0,1-.81,1.82,2.78,2.78,0,0,1-.9.48,4,4,0,0,1-1.12.16,4.71,4.71,0,0,1-.78-.07,4.49,4.49,0,0,1-.64-.18,4.32,4.32,0,0,1-.47-.21,1,1,0,0,1-.26-.19.4.4,0,0,1-.11-.19,1.32,1.32,0,0,1,0-.32,1.44,1.44,0,0,1,0-.24.54.54,0,0,1,0-.15.12.12,0,0,1,.06-.08l.09,0a.51.51,0,0,1,.25.11l.43.24a5.8,5.8,0,0,0,.62.24,3,3,0,0,0,.84.11,2,2,0,0,0,.66-.1,1.51,1.51,0,0,0,.52-.27,1.27,1.27,0,0,0,.33-.43,1.41,1.41,0,0,0,.11-.59,1.09,1.09,0,0,0-.16-.61,1.74,1.74,0,0,0-.42-.44,4.3,4.3,0,0,0-.6-.35l-.7-.32q-.34-.16-.69-.36a3.46,3.46,0,0,1-.6-.47,2.39,2.39,0,0,1-.43-.64,2.25,2.25,0,0,1-.16-.87,2.12,2.12,0,0,1,.19-.93,1.91,1.91,0,0,1,.53-.69,2.26,2.26,0,0,1,.8-.42,3.33,3.33,0,0,1,1-.15,3.53,3.53,0,0,1,.56.05,4.11,4.11,0,0,1,.53.13,2.53,2.53,0,0,1,.44.18,1.82,1.82,0,0,1,.26.16s.06.08.08.1a.46.46,0,0,1,0,.09s0,.08,0,.13v.2a1.34,1.34,0,0,1,0,.21.61.61,0,0,1,0,.15l-.06.09a.11.11,0,0,1-.08,0,.5.5,0,0,1-.22-.09L94,52.76a3.78,3.78,0,0,0-.52-.2,2.37,2.37,0,0,0-.68-.1,1.79,1.79,0,0,0-.6.1,1.14,1.14,0,0,0-.43.25,1,1,0,0,0-.25.36,1.44,1.44,0,0,0-.08.46,1,1,0,0,0,.16.59,1.66,1.66,0,0,0,.43.45,3.25,3.25,0,0,0,.61.35l.69.33c.24.11.47.23.7.36a3.15,3.15,0,0,1,.61.46,2,2,0,0,1,.59,1.5Z"/><path class="cls-1" d="M107.74,56.76v3.08a.16.16,0,0,1,0,.09.17.17,0,0,1-.09.06l-.17,0h-.53l-.17,0a.17.17,0,0,1-.09-.06.16.16,0,0,1,0-.09V56.76l-2.36-4.7a2,2,0,0,1-.09-.23.12.12,0,0,1,0-.13.3.3,0,0,1,.17-.06H105l.19,0a.17.17,0,0,1,.11.06l.07.11,1.15,2.39c.11.23.21.47.32.72l.33.75h0l.3-.73c.11-.24.22-.48.32-.72L109,51.85a.39.39,0,0,1,.06-.11.15.15,0,0,1,.09-.06.61.61,0,0,1,.17,0H110a.34.34,0,0,1,.18.06.15.15,0,0,1,0,.13,1.49,1.49,0,0,1-.09.23Z"/><path class="cls-1" d="M120.72,55.74a6.42,6.42,0,0,1-.24,1.82,4,4,0,0,1-.71,1.39,3.14,3.14,0,0,1-1.19.87,4.15,4.15,0,0,1-1.67.31,4.44,4.44,0,0,1-1.63-.28,2.85,2.85,0,0,1-1.13-.82,3.5,3.5,0,0,1-.67-1.32,6.75,6.75,0,0,1-.22-1.83,6.25,6.25,0,0,1,.24-1.79,3.87,3.87,0,0,1,.71-1.37,3.1,3.1,0,0,1,1.2-.87,4.25,4.25,0,0,1,1.67-.31,4.35,4.35,0,0,1,1.6.28,2.86,2.86,0,0,1,1.14.81,3.47,3.47,0,0,1,.68,1.31A7,7,0,0,1,120.72,55.74Zm-1.18.08a6.74,6.74,0,0,0-.12-1.32,2.87,2.87,0,0,0-.42-1.06,2,2,0,0,0-.78-.7,2.61,2.61,0,0,0-1.21-.25,2.46,2.46,0,0,0-1.21.27,2.31,2.31,0,0,0-.8.72,3.16,3.16,0,0,0-.44,1.06,6.4,6.4,0,0,0-.13,1.26,6.47,6.47,0,0,0,.13,1.36,2.8,2.8,0,0,0,.41,1.06,2,2,0,0,0,.77.7,2.63,2.63,0,0,0,1.22.25,2.54,2.54,0,0,0,1.23-.27,2.22,2.22,0,0,0,.79-.73,3.1,3.1,0,0,0,.44-1.07A6.55,6.55,0,0,0,119.54,55.82Z"/><path class="cls-1" d="M131.38,56.92a3.84,3.84,0,0,1-.22,1.36,2.7,2.7,0,0,1-1.64,1.64,4.07,4.07,0,0,1-1.35.21,3.77,3.77,0,0,1-1.25-.2,2.76,2.76,0,0,1-1-.59,2.53,2.53,0,0,1-.62-1A3.75,3.75,0,0,1,125.1,57V51.83a.29.29,0,0,1,0-.09l.09-.06.17,0h.54l.17,0a.18.18,0,0,1,.08.06.16.16,0,0,1,0,.09v5a3.44,3.44,0,0,0,.14,1,2,2,0,0,0,.41.71,1.74,1.74,0,0,0,.65.44,2.47,2.47,0,0,0,.84.14,2.5,2.5,0,0,0,.86-.14,1.68,1.68,0,0,0,.64-.43,1.79,1.79,0,0,0,.4-.7,3.22,3.22,0,0,0,.14-1v-5.1a.16.16,0,0,1,0-.09.17.17,0,0,1,.09-.06l.17,0h.52l.17,0,.09.06a.16.16,0,0,1,0,.09Z"/><path class="cls-1" d="M141.78,59.84a.29.29,0,0,1,0,.09.13.13,0,0,1-.08.06.6.6,0,0,1-.18,0h-.59l-.17,0a.39.39,0,0,1-.1-.08l-.06-.13-.76-2c-.09-.22-.19-.42-.29-.61a1.72,1.72,0,0,0-.34-.48,1.27,1.27,0,0,0-.47-.32,1.61,1.61,0,0,0-.65-.11h-.74v3.55a.16.16,0,0,1,0,.09l-.09.06L137,60h-.53l-.17,0a.29.29,0,0,1-.1-.06.29.29,0,0,1,0-.09V52.12a.39.39,0,0,1,.13-.35.44.44,0,0,1,.28-.1h2.3l.38,0a3,3,0,0,1,.85.26,1.93,1.93,0,0,1,.62.46,1.77,1.77,0,0,1,.38.63,2.52,2.52,0,0,1,.12.79,2.19,2.19,0,0,1-.11.75,1.68,1.68,0,0,1-.32.59,2.38,2.38,0,0,1-.51.44,3.2,3.2,0,0,1-.67.32,1.33,1.33,0,0,1,.38.23,2,2,0,0,1,.31.33,2.72,2.72,0,0,1,.27.44,5.09,5.09,0,0,1,.26.57l.75,1.84.12.32A1.25,1.25,0,0,1,141.78,59.84ZM140.11,54a1.47,1.47,0,0,0-.22-.83,1.25,1.25,0,0,0-.73-.49,1.91,1.91,0,0,0-.37-.06l-.53,0h-.93v2.81h1.08a2.21,2.21,0,0,0,.76-.11,1.42,1.42,0,0,0,.53-.29,1.14,1.14,0,0,0,.31-.45A1.47,1.47,0,0,0,140.11,54Z"/><path class="cls-1" d="M158.64,55.74a6.42,6.42,0,0,1-.24,1.82,4,4,0,0,1-.71,1.39,3.14,3.14,0,0,1-1.19.87,4.15,4.15,0,0,1-1.67.31,4.44,4.44,0,0,1-1.63-.28,2.78,2.78,0,0,1-1.13-.82,3.36,3.36,0,0,1-.67-1.32,6.75,6.75,0,0,1-.22-1.83,6.25,6.25,0,0,1,.24-1.79,3.87,3.87,0,0,1,.71-1.37,3.1,3.1,0,0,1,1.2-.87,4.25,4.25,0,0,1,1.67-.31,4.35,4.35,0,0,1,1.6.28,2.93,2.93,0,0,1,1.14.81,3.32,3.32,0,0,1,.67,1.31A6.55,6.55,0,0,1,158.64,55.74Zm-1.18.08a6.74,6.74,0,0,0-.12-1.32,3.27,3.27,0,0,0-.42-1.06,2.1,2.1,0,0,0-.78-.7,2.61,2.61,0,0,0-1.21-.25,2.46,2.46,0,0,0-1.21.27,2.31,2.31,0,0,0-.8.72,3.16,3.16,0,0,0-.44,1.06,6.4,6.4,0,0,0-.13,1.26,6.47,6.47,0,0,0,.13,1.36,2.8,2.8,0,0,0,.41,1.06,2,2,0,0,0,.77.7,2.63,2.63,0,0,0,1.22.25,2.54,2.54,0,0,0,1.23-.27,2.22,2.22,0,0,0,.79-.73,2.9,2.9,0,0,0,.43-1.07A5.85,5.85,0,0,0,157.46,55.82Z"/><path class="cls-1" d="M170.87,59.76a.35.35,0,0,1-.07.15.53.53,0,0,1-.15.08l-.22,0h-.66l-.23,0a.37.37,0,0,1-.14-.08.52.52,0,0,1-.07-.15l-1.74-6.3h0L166,59.76a.34.34,0,0,1-.06.15.41.41,0,0,1-.13.08l-.22,0h-.69l-.23,0a.37.37,0,0,1-.14-.08.52.52,0,0,1-.07-.15l-2.2-7.7a.84.84,0,0,1,0-.23.12.12,0,0,1,0-.13.3.3,0,0,1,.17-.06h.65a.66.66,0,0,1,.18,0s.07,0,.08.07a.34.34,0,0,1,0,.12l1.87,7h0l1.78-7a.83.83,0,0,1,0-.12.26.26,0,0,1,.1-.07.6.6,0,0,1,.18,0h.6a.61.61,0,0,1,.17,0,.2.2,0,0,1,.1.07.83.83,0,0,1,0,.12l1.92,7h0l1.84-7a.34.34,0,0,1,0-.12s0,0,.08-.07a.61.61,0,0,1,.17,0h.61a.3.3,0,0,1,.16.06.15.15,0,0,1,.05.13.85.85,0,0,1,0,.24Z"/><path class="cls-1" d="M183.57,59.55a.51.51,0,0,1,0,.22.58.58,0,0,1-.11.15l-.16.08-.17,0h-.37a1.21,1.21,0,0,1-.3,0,.67.67,0,0,1-.25-.13,1.42,1.42,0,0,1-.23-.25,3.58,3.58,0,0,1-.25-.42l-2.54-4.74c-.14-.24-.27-.5-.41-.77s-.26-.53-.37-.78h0c0,.31,0,.62,0,.94s0,.65,0,1v5a.16.16,0,0,1,0,.09l-.09.06-.17,0h-.54l-.16,0-.09-.06a.16.16,0,0,1,0-.09v-7.7a.41.41,0,0,1,.15-.36.46.46,0,0,1,.32-.11h.54a1.39,1.39,0,0,1,.32,0,.87.87,0,0,1,.24.1,1,1,0,0,1,.2.21c.06.09.13.2.2.33l2,3.66.34.66c.12.21.22.42.33.63s.2.41.31.6l.3.61h0c0-.34,0-.7,0-1.06V51.85a.11.11,0,0,1,0-.08.22.22,0,0,1,.09-.07l.17,0h.54a.61.61,0,0,1,.17,0,.22.22,0,0,1,.09.07.19.19,0,0,1,0,.08Z"/><path class="cls-1" d="M197.43,59.81a.35.35,0,0,1-.07.12l-.13.07a.58.58,0,0,1-.21,0h-.74l-.13,0-.1,0a.17.17,0,0,1-.06-.06l0-.08-2.73-7.75a.87.87,0,0,1-.05-.23.14.14,0,0,1,.05-.13.43.43,0,0,1,.19-.06h.64a.57.57,0,0,1,.16,0,.22.22,0,0,1,.09.07.58.58,0,0,1,0,.11l2.39,7h0l2.33-7a.34.34,0,0,1,0-.12.22.22,0,0,1,.09-.07.66.66,0,0,1,.18,0H200a.3.3,0,0,1,.16.06.26.26,0,0,1,0,.14s0,.13-.06.23Z"/><path class="cls-1" d="M211,55.74a6.42,6.42,0,0,1-.24,1.82,4,4,0,0,1-.71,1.39,3.14,3.14,0,0,1-1.19.87,4.15,4.15,0,0,1-1.67.31,4.44,4.44,0,0,1-1.63-.28,2.78,2.78,0,0,1-1.13-.82,3.36,3.36,0,0,1-.67-1.32,6.75,6.75,0,0,1-.22-1.83,6.25,6.25,0,0,1,.24-1.79,3.87,3.87,0,0,1,.71-1.37,3.1,3.1,0,0,1,1.2-.87,4.25,4.25,0,0,1,1.67-.31,4.35,4.35,0,0,1,1.6.28,2.86,2.86,0,0,1,1.14.81,3.32,3.32,0,0,1,.67,1.31A6.55,6.55,0,0,1,211,55.74Zm-1.18.08a6.74,6.74,0,0,0-.12-1.32,3.06,3.06,0,0,0-.42-1.06,2.1,2.1,0,0,0-.78-.7,2.61,2.61,0,0,0-1.21-.25,2.46,2.46,0,0,0-1.21.27,2.31,2.31,0,0,0-.8.72,3.16,3.16,0,0,0-.44,1.06,6.4,6.4,0,0,0-.13,1.26,6.47,6.47,0,0,0,.13,1.36,2.8,2.8,0,0,0,.41,1.06,2,2,0,0,0,.77.7,2.63,2.63,0,0,0,1.22.25,2.54,2.54,0,0,0,1.23-.27,2.22,2.22,0,0,0,.79-.73,2.9,2.9,0,0,0,.43-1.07A5.85,5.85,0,0,0,209.82,55.82Z"/><path class="cls-1" d="M221.65,52.8a1.55,1.55,0,0,1,0,.22.54.54,0,0,1,0,.15.2.2,0,0,1-.06.09l-.09,0a.58.58,0,0,1-.25-.12,4,4,0,0,0-.49-.27,4.2,4.2,0,0,0-.72-.27,3.7,3.7,0,0,0-1-.12,2.89,2.89,0,0,0-1.24.25,2.69,2.69,0,0,0-.93.69,3.11,3.11,0,0,0-.58,1.06,4.08,4.08,0,0,0-.21,1.33,4.19,4.19,0,0,0,.23,1.42,3,3,0,0,0,.61,1,2.69,2.69,0,0,0,.94.65,3.29,3.29,0,0,0,1.2.21,3.59,3.59,0,0,0,.78-.09,2.76,2.76,0,0,0,.74-.28V56.35h-1.94a.18.18,0,0,1-.16-.11.71.71,0,0,1-.06-.34,1.25,1.25,0,0,1,0-.21.47.47,0,0,1,0-.14.19.19,0,0,1,.07-.08.14.14,0,0,1,.09,0h2.65a.32.32,0,0,1,.14,0,.35.35,0,0,1,.13.08.28.28,0,0,1,.09.14.65.65,0,0,1,0,.2v3.18a.65.65,0,0,1-.06.29.5.5,0,0,1-.25.22,4.14,4.14,0,0,1-.48.2,6.17,6.17,0,0,1-.61.19,4.76,4.76,0,0,1-.64.11,5.14,5.14,0,0,1-2.37-.26A3.55,3.55,0,0,1,216,59a3.64,3.64,0,0,1-.8-1.33,5,5,0,0,1-.28-1.73,5.15,5.15,0,0,1,.3-1.8,4,4,0,0,1,.84-1.37,3.83,3.83,0,0,1,1.31-.88,4.39,4.39,0,0,1,1.69-.31,5.11,5.11,0,0,1,.9.08,7,7,0,0,1,.74.2,3.19,3.19,0,0,1,.55.25,1.77,1.77,0,0,1,.31.21.52.52,0,0,1,.11.19A1.33,1.33,0,0,1,221.65,52.8Z"/><path class="cls-1" d="M232.63,56.92a4.08,4.08,0,0,1-.22,1.36,2.7,2.7,0,0,1-1.64,1.64,4.07,4.07,0,0,1-1.35.21,3.87,3.87,0,0,1-1.26-.2,2.72,2.72,0,0,1-1-.59,2.67,2.67,0,0,1-.63-1,4,4,0,0,1-.22-1.35V51.83a.16.16,0,0,1,0-.09l.09-.06.17,0h.53l.17,0,.09.06a.16.16,0,0,1,0,.09v5a3.15,3.15,0,0,0,.14,1,1.84,1.84,0,0,0,.41.71,1.79,1.79,0,0,0,.64.44,2.68,2.68,0,0,0,1.71,0,1.76,1.76,0,0,0,.64-.43,2.07,2.07,0,0,0,.4-.7,3.22,3.22,0,0,0,.14-1v-5.1a.15.15,0,0,1,0-.09l.09-.06.17,0h.53l.17,0,.09.06a.16.16,0,0,1,0,.09Z"/><path class="cls-1" d="M242.11,59.55a1.12,1.12,0,0,1,0,.2.33.33,0,0,1,0,.15L242,60a.12.12,0,0,1-.09,0h-4a.5.5,0,0,1-.28-.1.43.43,0,0,1-.13-.36V52.12a.39.39,0,0,1,.13-.35.44.44,0,0,1,.28-.1h4a.15.15,0,0,1,.09,0,.22.22,0,0,1,.07.09.84.84,0,0,1,0,.14,1.41,1.41,0,0,1,0,.22.76.76,0,0,1-.05.34.19.19,0,0,1-.07.08l-.09,0h-3.27V55.2h2.8a.12.12,0,0,1,.09,0,.3.3,0,0,1,.08.08.54.54,0,0,1,0,.15,1.34,1.34,0,0,1,0,.21,1.21,1.21,0,0,1,0,.2.4.4,0,0,1,0,.13.2.2,0,0,1-.08.08l-.09,0h-2.8v3h3.31a.12.12,0,0,1,.09,0,.2.2,0,0,1,.08.08.29.29,0,0,1,0,.14A1.27,1.27,0,0,1,242.11,59.55Z"/><path class="cls-1" d="M247.8,59.3a.88.88,0,0,1-.15.61.79.79,0,0,1-.55.15.81.81,0,0,1-.54-.14.88.88,0,0,1-.14-.6.9.9,0,0,1,.15-.61.77.77,0,0,1,.55-.15.73.73,0,0,1,.53.15A.86.86,0,0,1,247.8,59.3Z"/><path class="cls-1" d="M89.09,8.46a11.86,11.86,0,0,1,3.26-3.77H85.83c1,1.18-.81,4.52-.81,4.52h0L78.27,21.37,70.35,7.13a4.72,4.72,0,0,0-4.14-2.44H62.68a11.86,11.86,0,0,1,3.26,3.77L75.2,25.27V34c-.09,4.58-1.34,6.18-1.34,6.18h7.33s-1.35-1.72-1.35-6.73v-8.2Z"/><path class="cls-1" d="M129.34,10.86c.09-4.57,1.34-6.17,1.34-6.17h-7.33s1.35,1.72,1.35,6.73v13c0,10.53-4.57,13.42-11.28,13.42-5.33,0-6.88-4.14-6.88-11.56V10.86c.1-4.57,1.34-6.17,1.34-6.17h-7.33s1.35,1.72,1.35,6.73V28.2h0c0,.08,0,.15,0,.23v.24h0C102,38.89,106.42,41,113.83,41a13.22,13.22,0,0,0,10.87-5.46v4.64h6s-1.25-1.6-1.34-6.18Z"/><path class="cls-1" d="M189.62,41q-7.47,0-11.52-4.63t-4-13.17q0-9.32,4.39-14.24T191.15,4c5.22,0,9.16,1.46,11.79,4.38s4,7.28,4,13.07-1.57,10.65-4.71,14.19S194.87,41,189.62,41Zm1.63-2.69a8.75,8.75,0,0,0,7.59-3.92q2.76-3.91,2.76-10.92,0-7.9-2.95-12.42a9.19,9.19,0,0,0-8.07-4.52,9.63,9.63,0,0,0-8.22,4q-3,4-3,11.18,0,7.88,3.12,12.25A10.08,10.08,0,0,0,191.25,38.31Z"/><path class="cls-1" d="M245.22,28.6c.1-4.57,1.34-6.17,1.34-6.17h-7.33s1.35,1.72,1.35,6.73V32c0,1.55-.53,5.82-.53,5.82l-.14,0a14.2,14.2,0,0,1-1.77.3,21.11,21.11,0,0,1-2.22.11q-7.42,0-11.62-4.14T220.1,22.6q0-7.41,3.86-11.71t10.47-4.3a15.2,15.2,0,0,1,6,1.15,13.19,13.19,0,0,1,4.74,3.46V4.69c-1.61-.22-3.15-.38-4.62-.49s-2.81-.16-4-.16q-10.32,0-16.27,5.22t-6,14.21q0,8.46,4.87,13t14,4.53q1.28,0,5.52-.39l1.38-.13c.87-.07,3.86-.24,4.81-.29h.89a21.82,21.82,0,0,1-.59-5.72Z"/><path class="cls-1" d="M170.07,4.69H164c.79.94.17,3.21-.11,4.08l-.12.35h0l-9.07,26.74L145.16,7.79a4.58,4.58,0,0,0-4.33-3.1h-3a8.78,8.78,0,0,1,2.52,3.62l10.81,31.86h5.6L167.26,9.12h0l.22-.63A9,9,0,0,1,170.07,4.69Z"/></g></g></svg>