<svg xmlns="http://www.w3.org/2000/svg" width="32" height="32" fill="none" viewBox="0 0 112.91 138.34"><defs><style>.cls-1{fill:#ffffff;}</style></defs><g id="layer2" data-name="layer2"><g id="paper2"><path class="cls-1" d="M96.88,19.78C86.35,7,71.73,0,55.72,0,40.25,0,26.14,6.94,16,19.55c-10.46,13-16,30.8-16,51.5,0,18.38,5.32,35.2,15,47.38a51,51,0,0,0,41.18,19.91c17.61,0,32.35-7.44,42.62-21.51,9.11-12.48,14.13-29.69,14.13-48.47S107.22,32.31,96.88,19.78ZM81.46,30.92C80,36.24,78.49,41,76.92,45.6c-1.71,5-3.53,9.76-5.41,14.22-2.09,5-4.2,9.44-6.46,13.67L63.28,76.8,62.6,78c-.38.7-.76,1.39-1.19,2.07l-1.94,3.25c-.32.52-.66,1-1,1.56l-.06.09c-.33.51-.66,1-1,1.51l-.38.58c-.21.34-.42.67-.63,1l-1.08,1.53c-.32.44-.63.89-.94,1.34s-.79,1.17-1.24,1.75l-2.29,3c-.45.62-1,1.23-1.44,1.82l.29.24h0l-.37-.15-.84,1c-.94,1.23-2,2.41-3.06,3.63-.63.7-1.25,1.41-1.83,2.09l-3.11,3.27-.82.86-1.41,1.35c-2.78,2.86-5.75,5.41-9,8.16L27,120C14.55,109.23,7.68,91.86,7.68,71.05c0-37.31,19.76-63.37,48-63.37a44.5,44.5,0,0,1,29,10.51C83.66,22.68,82.6,26.85,81.46,30.92ZM30.17,120.69l3-1.41,1.17-.63.59-.33c.85-.46,1.69-.94,2.56-1.43l.95-.54c.74-.46,1.47-.94,2.21-1.44L43.51,113l1.07-.8,3.75-2.89c.81-.69,1.6-1.39,2.44-2.13l1.11-1c.34-.29.68-.59,1-.91l1.41-1.4A96.59,96.59,0,0,0,64.9,91.6c.77-1.07,1.57-2.18,2.32-3.3l2.18-3.38c.49-.75.93-1.53,1.36-2.28l.7-1.22,1-1.77.93-1.77c1.23-2.33,2.28-4.58,3.53-7.29l.46-1.1c.86-2.06,1.75-4.2,2.52-6.38a126.52,126.52,0,0,0,4.51-15.4,126.48,126.48,0,0,0,2.5-15.79c.27-3.09.4-5.62.41-8,0-1.22,0-2.32,0-3.36,11.39,11.1,17.9,28.45,17.9,47.78,0,31-15.17,62.3-49.07,62.3a44,44,0,0,1-27.49-9.3Z"/><path class="cls-1" d="M45.83,27a27.84,27.84,0,0,0-6.3-4.26l-1-.47.5,1C41.48,28,43.49,32,45.34,36c2,4.31,3.72,8.41,5.23,12.55h0c1.46,4,2.79,8.2,4.07,12.93.63,2.37,1.19,4.74,1.79,7.25.5,2.14,1,4.36,1.61,6.63l.28,1.1.44-1A37.13,37.13,0,0,0,61.29,60.6,46.81,46.81,0,0,0,58.4,45.72,47.94,47.94,0,0,0,51,32.5,42.25,42.25,0,0,0,45.83,27Z"/><path class="cls-1" d="M35.7,57.14a42.22,42.22,0,0,0-5.2-5.49,28.18,28.18,0,0,0-6.3-4.27l-1-.46.51,1c2.44,4.76,4.45,8.75,6.31,12.78,2,4.3,3.71,8.4,5.23,12.55h0c1.45,4,2.78,8.19,4.07,12.93.63,2.37,1.19,4.74,1.78,7.24.51,2.15,1,4.36,1.62,6.64l.28,1.09.43-1A37.32,37.32,0,0,0,46,85.23a47.08,47.08,0,0,0-2.89-14.87A47.72,47.72,0,0,0,35.7,57.14Z"/></g></g></svg>