<svg width="300" height="400" viewBox="0 0 400 400" fill="none" xmlns="http://www.w3.org/2000/svg">
<defs><style>.cls-1{fill:#e0e0e0;}.cls-2{fill:#f0f0f0;}.cls-10,.cls-3{fill:#fff;}.cls-4{fill:#e6e6e6;}.cls-5{fill:#263238;}.cls-6{fill:#e8505b;}.cls-7{fill:#455a64;}.cls-8{font-size:8.3px;fill:#e8e8e3;font-family:Montserrat-Regular, Montserrat Regular;}.cls-9{opacity:0.1;}.cls-10,.cls-11,.cls-14{opacity:0.2;}.cls-12{fill:#ffbe9d;}.cls-13{fill:#eb996e;}</style></defs><g id="圖層_2" data-name="圖層 2"><g id="Background_Complete" data-name="Background Complete"><path class="cls-1" d="M427.21,282.15H263.35V187.3H427.21Zm-162.86-1H426.21V188.3H264.35Z"/><rect class="cls-2" x="285.27" y="237.87" width="108.13" height="3.17"/><rect class="cls-2" x="285.27" y="249.7" width="115.58" height="3.46"/><rect class="cls-2" x="285.27" y="261.66" width="115.58" height="3.46"/><rect class="cls-2" x="285.27" y="220.71" width="37.79" height="8.23"/><rect class="cls-1" x="263.85" y="187.8" width="162.86" height="15.1"/><path class="cls-3" d="M414.18,200.65c-.21-.2,1.89-2.73,4.68-5.66s5.24-5.13,5.44-4.93-1.89,2.73-4.68,5.65S414.38,200.84,414.18,200.65Z"/><path class="cls-3" d="M424.3,200.65c-.2.19-2.64-2-5.44-4.94s-4.89-5.45-4.68-5.65,2.64,2,5.44,4.93S424.51,200.45,424.3,200.65Z"/><rect class="cls-4" x="62.68" width="162.86" height="93.85"/><rect class="cls-2" x="84.11" y="50.07" width="108.13" height="3.17"/><rect class="cls-2" x="84.11" y="61.89" width="115.58" height="3.46"/><rect class="cls-2" x="84.11" y="73.85" width="115.58" height="3.46"/><rect class="cls-2" x="84.11" y="32.9" width="37.79" height="8.23"/><rect class="cls-1" x="62.68" width="162.86" height="15.1"/><path class="cls-3" d="M212.46,12.77c-.21-.2,1.89-2.73,4.68-5.65s5.23-5.13,5.44-4.94-1.89,2.73-4.69,5.66S212.66,13,212.46,12.77Z"/><path class="cls-3" d="M222.58,12.77c-.21.2-2.64-2-5.44-4.93s-4.89-5.46-4.68-5.66,2.64,2,5.43,4.94S222.79,12.57,222.58,12.77Z"/><path class="cls-1" d="M163.86,174.34H0V79.49H163.86ZM1,173.34H162.86V80.49H1Z"/><rect class="cls-2" x="21.93" y="130.06" width="108.13" height="3.17"/><rect class="cls-2" x="21.93" y="141.88" width="115.58" height="3.46"/><rect class="cls-2" x="21.93" y="153.84" width="115.58" height="3.46"/><rect class="cls-2" x="21.93" y="112.89" width="37.79" height="8.23"/><rect class="cls-1" x="0.5" y="79.99" width="162.86" height="15.1"/><rect class="cls-4" x="160.67" y="196.07" width="192.3" height="172.16"/><rect class="cls-2" x="19.7" y="141.84" width="150.64" height="156.51"/><rect class="cls-1" x="19.7" y="141.84" width="150.64" height="17.05"/><path class="cls-3" d="M32.14,150.19A3.17,3.17,0,1,1,29,146.88,3.24,3.24,0,0,1,32.14,150.19Z"/><path class="cls-3" d="M45,150.19a3.17,3.17,0,1,1-3.16-3.31A3.24,3.24,0,0,1,45,150.19Z"/><path class="cls-3" d="M57.8,150.19a3.17,3.17,0,1,1-3.17-3.31A3.24,3.24,0,0,1,57.8,150.19Z"/><rect class="cls-2" x="213.4" y="34.23" width="192.3" height="191.66"/><rect class="cls-1" x="213.4" y="34.23" width="192.3" height="22.45"/><path class="cls-3" d="M229.78,45.23a4.17,4.17,0,1,1-4.17-4.36A4.27,4.27,0,0,1,229.78,45.23Z"/><path class="cls-3" d="M245.45,42.28a4.17,4.17,0,1,1-6-.13A4.26,4.26,0,0,1,245.45,42.28Z"/><path class="cls-3" d="M263.56,45.23a4.17,4.17,0,1,1-4.17-4.36A4.27,4.27,0,0,1,263.56,45.23Z"/></g><g id="Floor"><path class="cls-5" d="M364.16,419.08c0,.14-69.44.26-155.08.26S54,419.22,54,419.08s69.43-.26,155.09-.26S364.16,418.93,364.16,419.08Z"/></g><g id="Plant"><path class="cls-6" d="M296.5,296.66c-15.45-10.79-18.95-30.83-18.34-48.84.1-3-.23-6.17,1.2-8.81s4.76-4.44,7.46-3.17c2.23,1,3.2,3.65,4.45,5.79a17.58,17.58,0,0,0,7.05,6.74c1.91,1,4.28,1.6,6.17.56,2.59-1.43,2.9-5,2.88-8q0-8.35-.1-16.71a27.83,27.83,0,0,1,.9-8.88c.93-2.84,3-5.48,5.83-6.27s6.36.84,7,3.77a27.08,27.08,0,0,1,.08,3.72c.09,1.24.67,2.61,1.84,3s2.39-.5,3.29-1.37c3.08-3,5.18-6.91,7.13-10.78s3.86-7.82,6.66-11.12,6.67-5.9,11-6.14,8.85,2.4,9.93,6.6-1.37,8.5-4,11.91a66.81,66.81,0,0,1-13.89,13.24,5.46,5.46,0,0,0-2.33,2.5c-.65,2,1.24,4,3.21,4.63,2.23.74,4.65.51,7,.78s4.85,1.31,5.73,3.51c1.23,3.06-1.33,6.26-3.84,8.36a57.14,57.14,0,0,1-16.92,9.76c-2.2.81-4.51,1.51-6.29,3.06s-2.84,4.23-1.77,6.34,3.82,2.78,6.13,2.35,4.36-1.68,6.56-2.51c4.11-1.55,9.41-1.26,12,2.29a9.46,9.46,0,0,1,1,8.36,21.73,21.73,0,0,1-4.53,7.39,57.46,57.46,0,0,1-24.55,17.25c-9.53,3.31-18.36,4.2-27.83.74"/><path class="cls-5" d="M356.52,192.6s-.09.11-.29.29l-.89.79c-.78.69-1.93,1.71-3.39,3.07a112.42,112.42,0,0,0-11.41,12.32c-2.23,2.77-4.54,5.91-7,9.32s-5,7.09-7.52,11.05a135.66,135.66,0,0,0-7.37,12.78c-1.16,2.28-2.18,4.67-3.23,7.11s-2.1,4.91-3.17,7.42a273.2,273.2,0,0,0-10.66,28.77,133.84,133.84,0,0,0-5,24.53,97.42,97.42,0,0,0-.28,16.88c.15,2,.31,3.54.45,4.58.06.5.1.89.14,1.19a2.53,2.53,0,0,1,0,.41s0-.14-.08-.4-.11-.69-.19-1.18c-.18-1-.37-2.59-.56-4.58a94,94,0,0,1,.11-16.94,131,131,0,0,1,4.89-24.64,267.64,267.64,0,0,1,10.63-28.84q1.61-3.76,3.18-7.42c1-2.43,2.08-4.84,3.25-7.14a133.92,133.92,0,0,1,7.43-12.81c2.56-4,5.14-7.63,7.57-11s4.77-6.53,7-9.3a106.86,106.86,0,0,1,11.58-12.23c1.48-1.34,2.65-2.33,3.46-3,.39-.31.7-.56.92-.75Z"/><path class="cls-5" d="M318.36,242a6.44,6.44,0,0,1-.29-1.28c-.16-.82-.34-2-.55-3.51-.43-3-.87-7.11-1.34-11.67s-1-8.67-1.44-11.63c-.23-1.48-.43-2.68-.58-3.5a5.64,5.64,0,0,1-.16-1.3,6.27,6.27,0,0,1,.37,1.25c.22.81.47,2,.75,3.48.57,3,1.13,7.08,1.6,11.64s.87,8.57,1.18,11.68c.15,1.4.28,2.58.38,3.53A5.62,5.62,0,0,1,318.36,242Z"/><path class="cls-5" d="M356.8,234.77a9.45,9.45,0,0,1-1.53.18c-1,.09-2.42.21-4.18.41-3.52.38-8.36,1.08-13.67,2.08s-10.08,2.13-13.51,3c-1.71.44-3.09.83-4.05,1.1a7.9,7.9,0,0,1-1.5.37,8.09,8.09,0,0,1,1.44-.58c.94-.33,2.3-.78,4-1.27,3.41-1,8.18-2.2,13.51-3.21A136.16,136.16,0,0,1,351.06,235c1.77-.16,3.2-.22,4.2-.24A8.05,8.05,0,0,1,356.8,234.77Z"/><path class="cls-5" d="M301.62,284.66s-.11-.15-.26-.47-.4-.83-.66-1.39c-.57-1.21-1.34-3-2.26-5.18-1.86-4.41-4.23-10.57-6.75-17.4s-4.84-13-6.6-17.46l-2.1-5.24c-.22-.58-.41-1.05-.56-1.43a1.93,1.93,0,0,1-.16-.52,2.53,2.53,0,0,1,.26.47c.18.38.4.83.66,1.39.56,1.21,1.34,3,2.26,5.18,1.86,4.41,4.23,10.57,6.75,17.41s4.83,13,6.59,17.45c.87,2.15,1.58,3.93,2.1,5.25.23.57.42,1,.57,1.43A1.93,1.93,0,0,1,301.62,284.66Z"/><path class="cls-5" d="M352.7,268.2a2.12,2.12,0,0,1-.51.21l-1.48.5-5.47,1.77c-4.62,1.5-11,3.64-18,6s-13.41,4.47-18.06,5.87c-2.32.7-4.21,1.25-5.52,1.6l-1.51.4a1.72,1.72,0,0,1-.54.1,1.9,1.9,0,0,1,.51-.21l1.48-.49,5.47-1.78c4.62-1.49,11-3.64,18-6s13.4-4.46,18.05-5.87c2.33-.7,4.21-1.25,5.53-1.6l1.51-.4A2.13,2.13,0,0,1,352.7,268.2Z"/></g><g id="Padlock"><path class="cls-6" d="M331.86,25.62l-5.15,1.85-2.21-6.73c-4.06-12.41-17-19-28.89-14.81s-18.22,17.8-14.16,30.21l2.21,6.73-5.17,1.85A8.22,8.22,0,0,0,273.67,55L288,98.79a7.73,7.73,0,0,0,9.86,5.11l53.37-19.1a8.25,8.25,0,0,0,4.87-10.37L341.76,30.64A7.71,7.71,0,0,0,331.86,25.62Zm-40.68,7a13.2,13.2,0,0,1,7.76-16.56,12.37,12.37,0,0,1,15.83,8.12L317,31l-23.59,8.44Zm30,38.85,3.66,11.18a.9.9,0,0,1-.57,1.12l-5.13,1.84a.82.82,0,0,1-1-.54l-3.67-11.19a10,10,0,0,1-9-7,10.51,10.51,0,0,1,6.19-13.18,9.83,9.83,0,0,1,12.61,6.45A10.68,10.68,0,0,1,321.19,71.51Z"/><path class="cls-5" d="M326.48,27.35c0,.13-9.55,3.73-21.44,8S283.48,43,283.43,42.91s9.55-3.73,21.44-8S326.43,27.21,326.48,27.35Z"/><path class="cls-5" d="M337.82,29.19l.11.26.29.79c.26.72.62,1.74,1.07,3l3.84,11.17c1.6,4.74,3.51,10.36,5.62,16.6,1.05,3.14,2.19,6.39,3.29,9.83a15,15,0,0,1,.75,5.49,7.42,7.42,0,0,1-.81,2.77,7.6,7.6,0,0,1-1.89,2.22A17.69,17.69,0,0,1,345,83.94l-5.15,1.86-9.75,3.49L313.6,95.17l-11.15,3.92-3,1-.8.26a1.49,1.49,0,0,1-.27.07s.08,0,.25-.12l.78-.31,3-1.13,11.09-4.08,16.48-6,9.73-3.51,5.15-1.86A17.39,17.39,0,0,0,349.76,81a7.11,7.11,0,0,0,1.76-2.07,6.86,6.86,0,0,0,.75-2.57,14.44,14.44,0,0,0-.72-5.3c-1.08-3.4-2.22-6.68-3.25-9.81-2.08-6.26-3.95-11.89-5.52-16.64S340,36,339.1,33.33c-.42-1.3-.74-2.32-1-3.06-.1-.33-.18-.59-.24-.8A1,1,0,0,1,337.82,29.19Z"/><path class="cls-5" d="M309.66,15.4s-.53-.27-1.51-.67a13.62,13.62,0,0,0-4.37-.87,14.8,14.8,0,0,0-6.44,1.22,14.37,14.37,0,0,0-6.11,5.1,13.53,13.53,0,0,0-2.35,7.6,23.31,23.31,0,0,0,1,6.54c.52,1.83,1.06,3.28,1.42,4.28a12.24,12.24,0,0,1,.52,1.58,8.87,8.87,0,0,1-.71-1.5c-.41-1-1-2.42-1.59-4.25a22.44,22.44,0,0,1-1.14-6.66,13.73,13.73,0,0,1,2.4-7.88,14.61,14.61,0,0,1,6.35-5.25,14.77,14.77,0,0,1,6.65-1.15,12.56,12.56,0,0,1,4.43,1.06,9.93,9.93,0,0,1,1.08.59C309.55,15.3,309.67,15.38,309.66,15.4Z"/><path class="cls-5" d="M310.12,54.53a2.49,2.49,0,0,1,.5-.25,10.88,10.88,0,0,1,1.55-.56,11.14,11.14,0,0,1,2.59-.43,8.94,8.94,0,0,1,3.51.52c2.56.9,4.91,3.51,6.07,7a10.12,10.12,0,0,1,0,5.75,12.92,12.92,0,0,1-3.27,5.4l.07-.26c1.33,3.64,2.77,7.61,4.28,11.74l.09.25-.25.08-2.29.77-5,1.66-.25.09-.08-.25c-1.37-4.15-2.87-8.06-4-11.79l.21.17a10.05,10.05,0,0,1-5.35-2.12,12.12,12.12,0,0,1-3.36-4,9.37,9.37,0,0,1-1.06-4.5,10.9,10.9,0,0,1,.84-3.87,10.51,10.51,0,0,1,3.36-4.39,6.36,6.36,0,0,1,1.73-1,16.56,16.56,0,0,0-1.64,1.09A10.66,10.66,0,0,0,305.3,60a9.48,9.48,0,0,0,.31,8.08,11.84,11.84,0,0,0,3.27,3.84,9.59,9.59,0,0,0,5.11,2h.17l0,.16c1.1,3.71,2.61,7.6,4,11.77l-.33-.17,5-1.67,2.28-.76-.16.33c-1.49-4.13-2.93-8.1-4.25-11.75l-.05-.14.11-.12a12.52,12.52,0,0,0,3.16-5.17,9.58,9.58,0,0,0,0-5.49c-1.09-3.36-3.34-5.92-5.78-6.81a8.59,8.59,0,0,0-3.39-.57,10.9,10.9,0,0,0-2.56.35C310.83,54.23,310.13,54.57,310.12,54.53Z"/></g><g id="Device"><path class="cls-7" d="M279.21,343.26l-99.88-.46A21.76,21.76,0,0,1,157.67,321l1.06-250.4a21.77,21.77,0,0,1,21.86-21.67l99.88.47a21.75,21.75,0,0,1,21.66,21.84L301.07,321.6A21.75,21.75,0,0,1,279.21,343.26Z"/><path class="cls-3" d="M280.33,58,261,57.9a4.81,4.81,0,0,0-4.72,4.89l0,3.51a4.81,4.81,0,0,1-4.72,4.9L213.75,71a4.81,4.81,0,0,1-4.68-4.93l0-3.52a4.81,4.81,0,0,0-4.68-4.93l-6.81,0-16.95-.08A15.23,15.23,0,0,0,165.34,72.7l-1,244.41a15.23,15.23,0,0,0,15.16,15.31l99.68.46a15.24,15.24,0,0,0,15.31-15.18l1-244.41A15.23,15.23,0,0,0,280.33,58Z"/><path class="cls-6" d="M266.91,300.27l-74.12-.34a1.68,1.68,0,0,1-1.38-1.87l.08-19.39c0-1,.63-1.86,1.4-1.85l74.12.34c.77,0,1.39.84,1.38,1.87l-.08,19.39A1.68,1.68,0,0,1,266.91,300.27Z"/><text class="cls-8" transform="matrix(0.96, 0, 0, 1, 212.91, 290.89)">SING UP</text><rect class="cls-6" x="181.83" y="129.76" width="25.72" height="4.72" transform="translate(0.61 -0.9) rotate(0.26)"/><rect class="cls-9" x="181.83" y="129.76" width="25.72" height="4.72" transform="translate(0.61 -0.9) rotate(0.26)"/><path class="cls-1" d="M283,158.77a2.3,2.3,0,0,0,.59-.14,1.56,1.56,0,0,0,1-1.34c0-1.6,0-3.91,0-6.89,0-1.5,0-3.16,0-5,0-.46,0-.92,0-1.4a1.91,1.91,0,0,0-.29-1.31,1.46,1.46,0,0,0-1.18-.61h-1.56l-14.45,0-83.64-.31a1.36,1.36,0,0,0-1.1.56,1.9,1.9,0,0,0-.26,1.31c0,1,0,2,0,3q0,3,0,6c0,1,0,2,0,3a8,8,0,0,0,0,1.41,1.35,1.35,0,0,0,.78.9,1.4,1.4,0,0,0,.62.1h5.09l22.21.12,37.6.23,25.35.2,6.89.08,1.79,0c.41,0,.61,0,.61,0s-.2,0-.61,0h-1.79l-6.89,0-25.35,0-37.61-.12-22.2-.09h-5.1a2.11,2.11,0,0,1-.81-.15,1.89,1.89,0,0,1-1.08-1.24,2.83,2.83,0,0,1-.06-.8v-.74c0-1,0-2,0-3q0-3,0-6c0-1,0-2,0-3a7.24,7.24,0,0,1,0-.79,1.88,1.88,0,0,1,1.86-1.59l83.64.46,14.45.11h1.56a1.75,1.75,0,0,1,1.4.73,2.15,2.15,0,0,1,.32,1.47c0,.48,0,.94,0,1.4,0,1.82,0,3.48,0,5,0,3-.07,5.3-.09,6.9a1.6,1.6,0,0,1-1.05,1.38A1.2,1.2,0,0,1,283,158.77Z"/><rect class="cls-6" x="188.73" y="147.96" width="47.04" height="4.41" transform="matrix(1, 0, 0, 1, 0.7, -0.98)"/><rect class="cls-10" x="188.73" y="147.96" width="47.04" height="4.41" transform="matrix(1, 0, 0, 1, 0.7, -0.98)"/><rect class="cls-6" x="181.65" y="172.82" width="25.72" height="4.72" transform="translate(0.81 -0.9) rotate(0.26)"/><rect class="cls-9" x="181.65" y="172.82" width="25.72" height="4.72" transform="translate(0.81 -0.9) rotate(0.26)"/><path class="cls-1" d="M282.31,201.83a3.35,3.35,0,0,0,.6-.11,2.09,2.09,0,0,0,1.26-1.13,2.8,2.8,0,0,0,.18-1.27c0-.49,0-1,0-1.59,0-1.15,0-2.47,0-4v-6.36a2.15,2.15,0,0,0-.29-1.32,2,2,0,0,0-1.09-.84,6.63,6.63,0,0,0-1.51-.09l-14.39,0-83.35-.31a1.83,1.83,0,0,0-1.83,1.61c0,.95,0,2,0,3q0,3,0,6c0,1,0,2,0,3a5.76,5.76,0,0,0,.06,1.4,1.84,1.84,0,0,0,.73,1,2,2,0,0,0,1.24.32h4.35l22.13.12,37.47.23,25.26.2,6.87.08,1.79,0c.4,0,.6,0,.6,0s-.2,0-.61,0h-1.78l-6.87,0-25.26,0-37.47-.12-22.13-.09h-4.35a2.5,2.5,0,0,1-1.53-.4,2.42,2.42,0,0,1-.94-1.32,6.24,6.24,0,0,1-.08-1.53c0-1,0-2,0-3,0-2,0-4,0-6,0-1,0-2,0-3.05a2.36,2.36,0,0,1,2.35-2.07l83.35.46,14.39.1a6.7,6.7,0,0,1,1.6.11,2.25,2.25,0,0,1,1.23,1,2.41,2.41,0,0,1,.32,1.46c0,.48,0,.94,0,1.39,0,1.82,0,3.47,0,5s0,2.81-.05,4c0,.58,0,1.11,0,1.59a2.87,2.87,0,0,1-.21,1.31,2.09,2.09,0,0,1-1.35,1.14A1.58,1.58,0,0,1,282.31,201.83Z"/><rect class="cls-6" x="181.46" y="217.73" width="25.72" height="4.72" transform="translate(1.01 -0.89) rotate(0.26)"/><rect class="cls-9" x="181.46" y="217.73" width="25.72" height="4.72" transform="translate(1.01 -0.89) rotate(0.26)"/><path class="cls-1" d="M282.12,246.75a4.39,4.39,0,0,0,.6-.12A2.06,2.06,0,0,0,284,245.5a2.8,2.8,0,0,0,.18-1.27c0-.48,0-1,0-1.59,0-1.15,0-2.47,0-4v-6.35a2.15,2.15,0,0,0-.29-1.32,1.94,1.94,0,0,0-1.09-.85,6.13,6.13,0,0,0-1.51-.08l-14.39,0-83.35-.31a1.85,1.85,0,0,0-1.83,1.61c0,1,0,2,0,3q0,3,0,6c0,1,0,2,0,3a5.74,5.74,0,0,0,.06,1.4,1.84,1.84,0,0,0,.73,1,2,2,0,0,0,1.24.32h1.46l2.89,0,22.13.11,37.47.23,25.26.2,6.87.08,1.79,0c.4,0,.6,0,.6,0l-.6,0-1.79,0h-6.87l-25.26,0-37.47-.12L188,246.57l-2.9,0h-1.45a2.51,2.51,0,0,1-1.53-.41,2.4,2.4,0,0,1-.94-1.31,6.32,6.32,0,0,1-.08-1.54c0-1,0-2,0-3q0-3,0-6c0-1,0-2,0-3.05a2.37,2.37,0,0,1,2.35-2.07l83.35.46,14.39.11a5.78,5.78,0,0,1,1.6.11,2.21,2.21,0,0,1,1.23,1,2.39,2.39,0,0,1,.32,1.46c0,.47,0,.93,0,1.39,0,1.81,0,3.47,0,5s0,2.81,0,4c0,.57,0,1.1,0,1.58a2.87,2.87,0,0,1-.21,1.31,2.11,2.11,0,0,1-1.35,1.15A1.88,1.88,0,0,1,282.12,246.75Z"/><rect class="cls-6" x="188.55" y="191.02" width="47.04" height="4.41" transform="translate(0.89 -0.98) rotate(0.26)"/><rect class="cls-10" x="188.55" y="191.02" width="47.04" height="4.41" transform="translate(0.89 -0.98) rotate(0.26)"/><path class="cls-6" d="M192.83,238.58a2.06,2.06,0,1,1-2.05-2.2A2.13,2.13,0,0,1,192.83,238.58Z"/><path class="cls-6" d="M199.2,238.61a2.06,2.06,0,1,1-2-2.2A2.13,2.13,0,0,1,199.2,238.61Z"/><path class="cls-6" d="M205.58,238.64a2.06,2.06,0,1,1-2.05-2.2A2.14,2.14,0,0,1,205.58,238.64Z"/><path class="cls-6" d="M212,238.67a2.06,2.06,0,1,1-2-2.2A2.13,2.13,0,0,1,212,238.67Z"/><path class="cls-6" d="M218.32,238.7a2.06,2.06,0,1,1-2-2.2A2.12,2.12,0,0,1,218.32,238.7Z"/><path class="cls-6" d="M224.69,238.73a2.06,2.06,0,1,1-2-2.2A2.11,2.11,0,0,1,224.69,238.73Z"/><path class="cls-6" d="M231.07,238.76a2.06,2.06,0,1,1-2-2.2A2.13,2.13,0,0,1,231.07,238.76Z"/><path class="cls-6" d="M237.44,238.79a2.06,2.06,0,1,1-2.05-2.2A2.12,2.12,0,0,1,237.44,238.79Z"/><path class="cls-6" d="M243.81,238.82a2.06,2.06,0,1,1-2-2.2A2.12,2.12,0,0,1,243.81,238.82Z"/><g class="cls-11"><path class="cls-3" d="M192.83,238.58a2.06,2.06,0,1,1-2.05-2.2A2.13,2.13,0,0,1,192.83,238.58Z"/><path class="cls-3" d="M199.2,238.61a2.06,2.06,0,1,1-2-2.2A2.13,2.13,0,0,1,199.2,238.61Z"/><path class="cls-3" d="M205.58,238.64a2.06,2.06,0,1,1-2.05-2.2A2.14,2.14,0,0,1,205.58,238.64Z"/><path class="cls-3" d="M212,238.67a2.06,2.06,0,1,1-2-2.2A2.13,2.13,0,0,1,212,238.67Z"/><path class="cls-3" d="M218.32,238.7a2.06,2.06,0,1,1-2-2.2A2.12,2.12,0,0,1,218.32,238.7Z"/><path class="cls-3" d="M224.69,238.73a2.06,2.06,0,1,1-2-2.2A2.11,2.11,0,0,1,224.69,238.73Z"/><path class="cls-3" d="M231.07,238.76a2.06,2.06,0,1,1-2-2.2A2.13,2.13,0,0,1,231.07,238.76Z"/><path class="cls-3" d="M237.44,238.79a2.06,2.06,0,1,1-2.05-2.2A2.12,2.12,0,0,1,237.44,238.79Z"/><path class="cls-3" d="M243.81,238.82a2.06,2.06,0,1,1-2-2.2A2.12,2.12,0,0,1,243.81,238.82Z"/></g><path class="cls-6" d="M234.76,94.45a3.87,3.87,0,0,0,2.31-3.59,3.64,3.64,0,1,0-7.27,0,3.86,3.86,0,0,0,2.32,3.62c-5.6.84-5.35,6.93-5.35,6.93l13.24.06S240.31,95.29,234.76,94.45Z"/><path class="cls-9" d="M234.76,94.45a3.87,3.87,0,0,0,2.31-3.59,3.64,3.64,0,1,0-7.27,0,3.86,3.86,0,0,0,2.32,3.62c-5.6.84-5.35,6.93-5.35,6.93l13.24.06S240.31,95.29,234.76,94.45Z"/><rect class="cls-6" x="209.06" y="105.31" width="47.19" height="5.64" transform="translate(0.5 -1.07) rotate(0.26)"/><rect class="cls-10" x="209.06" y="105.31" width="47.19" height="5.64" transform="translate(0.5 -1.07) rotate(0.26)"/></g><g id="Speech_Bubble" data-name="Speech Bubble"><path class="cls-6" d="M82.78,134.62a2.66,2.66,0,0,1-.46.06l-1.36.09a15.63,15.63,0,0,0-2.19.3,13.38,13.38,0,0,0-1.39.26l-1.55.43a25.43,25.43,0,0,0-7.38,3.66,26,26,0,0,0-7.25,8.08,27,27,0,0,0-2.54,5.8,28,28,0,0,0-1.11,6.78,27.6,27.6,0,0,0,.06,3.63c0,.61.17,1.22.25,1.84a11.82,11.82,0,0,0,.35,1.85,26.39,26.39,0,0,0,15,18.33,23.75,23.75,0,0,0,8.58,1.92,23.21,23.21,0,0,0,9-1.29l.88-.32.12,0,.1.05,12.61,6.4-.37.32c-1.35-4.18-2.65-8.23-3.91-12.12l0-.15.12-.11a27,27,0,0,0,6.62-11,27.68,27.68,0,0,0,1-11.72,27.33,27.33,0,0,0-3.31-9.93,26.81,26.81,0,0,0-5.7-7,27.74,27.74,0,0,0-6.2-3.95,26.76,26.76,0,0,0-5.23-1.64l-2-.34-1.45-.1-.88-.07-.31,0h.31l.89,0,1.45.06,2,.3a26.5,26.5,0,0,1,5.31,1.59,26.79,26.79,0,0,1,15.53,21,27.92,27.92,0,0,1-.93,11.91,27.39,27.39,0,0,1-6.72,11.24l.06-.26c1.26,3.88,2.57,7.93,3.93,12.11l.19.61-.57-.29-12.61-6.4.22,0-.9.33a23.66,23.66,0,0,1-9.17,1.31,24.09,24.09,0,0,1-8.77-2A26.26,26.26,0,0,1,60.57,174.9a26.58,26.58,0,0,1-2.83-7.4,15.16,15.16,0,0,1-.35-1.88c-.08-.63-.21-1.25-.24-1.87a29.59,29.59,0,0,1,1.11-10.57,27.32,27.32,0,0,1,2.61-5.88,26.28,26.28,0,0,1,7.41-8.13,25.47,25.47,0,0,1,7.49-3.61l1.57-.41a13.72,13.72,0,0,1,1.4-.24,13.63,13.63,0,0,1,2.21-.24l1.37,0Z"/><path class="cls-6" d="M88.49,158H86.64l-4-5.62v-3.69s-2.86-.17-2.52,4.66,0,3.6,0,3.6-6.07,0-6.57.55c-.37.38-.53,6.41-.6,9.67a3.55,3.55,0,0,0,2.51,3.57,3,3,0,0,0,.65.08c1.52,0,9.24-1.23,9.24-1.23h3.2Z"/><polygon class="cls-6" points="93.78 156.96 92.64 169.6 89.48 169.6 89.48 157.21 93.78 156.96"/></g><g id="Character"><path class="cls-6" d="M131.47,414.29v-8.56l-15.33-.1L116,418.55l.95.07c4.23.28,21.52.68,24.36-.2C144.48,417.44,131.47,414.29,131.47,414.29Z"/><path class="cls-5" d="M141.68,417.62c0,.14-5.74.26-12.81.26s-12.81-.12-12.81-.26,5.74-.26,12.81-.26S141.68,417.47,141.68,417.62Z"/><path class="cls-5" d="M131.74,416c-.13-.06,0-.52.31-1s.73-.69.83-.58-.11.47-.41.89S131.87,416.1,131.74,416Z"/><path class="cls-5" d="M132.72,416.6c-.14-.05-.07-.56.23-1.09s.7-.86.81-.77-.07.53-.35,1S132.85,416.65,132.72,416.6Z"/><path class="cls-5" d="M120.68,417.58c-.06,0-.29-.18-.62-.56a10.52,10.52,0,0,0-1.34-1.35,3.5,3.5,0,0,0-1.66-.72c-.47-.07-.77,0-.8-.07s.26-.27.81-.3a3.05,3.05,0,0,1,2,.68,5.62,5.62,0,0,1,1.32,1.54C120.62,417.24,120.74,417.54,120.68,417.58Z"/><path class="cls-5" d="M131.79,414.42c.07.13-.19.42-.63.58s-.83.11-.85,0,.29-.31.67-.46S131.71,414.3,131.79,414.42Z"/><path class="cls-5" d="M131.54,413.6c0,.14-.39.26-.91.27s-.93-.1-.92-.25.42-.26.92-.27S131.53,413.46,131.54,413.6Z"/><path class="cls-6" d="M169.22,414.29v-8.56l-15.33-.1-.13,12.79,1,.07c4.23.28,21.52.81,24.36-.07C182.23,417.44,169.22,414.29,169.22,414.29Z"/><path class="cls-5" d="M179.43,417.64c0,.14-5.73.26-12.81.26s-12.81-.12-12.81-.26,5.74-.26,12.81-.26S179.43,417.49,179.43,417.64Z"/><path class="cls-5" d="M169.49,416c-.13-.06,0-.52.31-1s.73-.69.83-.58-.11.47-.41.89S169.62,416.1,169.49,416Z"/><path class="cls-5" d="M170.47,416.6c-.13-.05-.07-.56.24-1.09s.69-.86.81-.77-.08.53-.36,1S170.6,416.65,170.47,416.6Z"/><path class="cls-5" d="M158.43,417.58c-.06,0-.28-.18-.62-.56a10.52,10.52,0,0,0-1.34-1.35,3.5,3.5,0,0,0-1.66-.72c-.47-.07-.77,0-.8-.07s.26-.27.81-.3a3,3,0,0,1,2,.68,5.62,5.62,0,0,1,1.32,1.54C158.37,417.24,158.49,417.54,158.43,417.58Z"/><path class="cls-5" d="M169.54,414.42c.07.13-.19.42-.63.58s-.83.11-.85,0,.29-.31.67-.46S169.46,414.3,169.54,414.42Z"/><path class="cls-5" d="M169.3,413.6c0,.14-.4.26-.92.27s-.92-.1-.92-.25.42-.26.92-.27S169.28,413.46,169.3,413.6Z"/><path class="cls-12" d="M225.7,160.39c-.4-.41-1.39-.22-1.39-.22a5.35,5.35,0,0,0,0-1.73c-.18-.57-1.44-.46-1.44-.46a5.79,5.79,0,0,1,0-1.42.49.49,0,0,0-.29-.5,4.72,4.72,0,0,0-1.88-.35c-.78-.55,2.35-4.92,3.51-6.31s1-2.49-.08-2.49c-.71,0-4.35,4.2-5.47,5.61s-4.09,5.33-4.2,2.2-1.35-5.5-2.14-5.9-1.63.54-1.2,1.41a11.37,11.37,0,0,1,.7,3.08,7.68,7.68,0,0,1-.11,2.53,30.63,30.63,0,0,1-1.35,4.52l-.08-.05s-21.82,20.93-23.4,22.43c-1.41,1.34-29.78-1.59-35.46-2.2a39.49,39.49,0,0,0-5.84-.39c-2.47.1-2.91.45-5.37.49a120.35,120.35,0,0,0-18.54,1.63,15.33,15.33,0,0,0-12.06,10.46c-5.73,17.89-18.71,60.26-21,84.07a99.85,99.85,0,0,0-4.68,9.67c-1.61,4.38-1.22,4.53-.68,4.63,1.46.26,3.12-7.59,3.74-5.7s-3.15,9.38-1.62,9.6c2,.28,3.59-8,3.77-8.67s1.19-.44,1,.17c-.29.88-3.1,10.21-1.14,10.51,1.08.17,1.2-1.81,1.2-1.81s2-8.92,2.91-8.75-.06,5.46-.52,7.21.18,2.66,1.12,2.22c.64-.3,2.17-5.64,2.59-7.39s1.46-6.56,2.88-3.76,3.55,4.41,4.43,4.44a1,1,0,0,0,.49-1.79,11.25,11.25,0,0,1-1.93-2.49,7.37,7.37,0,0,1-1-2.34,25.37,25.37,0,0,1-.7-5.06l-.16-1c2.23-11.09,8.69-43.64,18-64.43l3.82,7.86,1.66,5.81L113.6,250.84l43.41-.57-6.47-24.94,7.87-26h0c8.51.19,30.36.51,34-1.13,4.57-2.05,28.27-31.92,28.27-31.92h0a56.77,56.77,0,0,0,4.43-3.84S226.56,161.28,225.7,160.39Z"/><path class="cls-6" d="M111.71,232.33c1.26-4.3,7.73-25.55,7.73-25.55s3.18,17.33,2.34,19.41a36.38,36.38,0,0,1-2.73,5.16c-7.34,11.18-6.38,16.77-6.38,16.77L157,246.76c.11-6.2-3.56-20.61-4.33-22.91s1.78-9.84,1.78-9.84,5-5.09,4.82-7.7a42.38,42.38,0,0,0-.87-7l27,1L184.54,182l-38.78-3.88c-1.35,3.82-13.56,2-13.56,2-13.18.43-14,2.86-19.48,7.11S98.17,228,98.17,228Z"/><path class="cls-5" d="M137.93,228a9.33,9.33,0,0,1-2.33.12c-1.45,0-3.44-.1-5.63-.32s-4.17-.53-5.58-.81a9.62,9.62,0,0,1-2.27-.58,10.56,10.56,0,0,1,2.32.22c1.43.18,3.4.43,5.58.65s4.16.37,5.59.47A10.55,10.55,0,0,1,137.93,228Z"/><path class="cls-5" d="M141,224.24a10.58,10.58,0,0,1-2.42.82,43.46,43.46,0,0,1-12.23,1.45,10.45,10.45,0,0,1-2.54-.23,15.42,15.42,0,0,1,2.54-.13c1.57-.05,3.73-.17,6.11-.45s4.5-.68,6-1A14.35,14.35,0,0,1,141,224.24Z"/><path class="cls-5" d="M155.88,207.42a9.33,9.33,0,0,1-.3,2.26c-.26,1.38-.66,3.28-1.17,5.37s-1,3.95-1.45,5.3a9.71,9.71,0,0,1-.77,2.14,10.18,10.18,0,0,1,.42-2.24c.38-1.56.81-3.35,1.29-5.33s.94-3.76,1.32-5.32A10.36,10.36,0,0,1,155.88,207.42Z"/><path class="cls-5" d="M112.18,229.79a49,49,0,0,1-6.83-1.6,48.29,48.29,0,0,1-6.7-2.09,46.48,46.48,0,0,1,6.83,1.59A47.46,47.46,0,0,1,112.18,229.79Z"/><path class="cls-5" d="M158.89,199.09a3.25,3.25,0,0,1-1.14,0,11.35,11.35,0,0,1-3.05-.72,12.77,12.77,0,0,1-4-2.43,12.52,12.52,0,0,1-3.26-4.68,13,13,0,0,1-.89-5.64,8.75,8.75,0,0,1,1.37-4.46,4.57,4.57,0,0,1,2.53-1.86,3.15,3.15,0,0,1,.85-.12c.2,0,.3,0,.3.05a11.17,11.17,0,0,0-1.09.26,4.63,4.63,0,0,0-2.29,1.88c-1.36,2.14-1.74,6-.29,9.7a12.39,12.39,0,0,0,3.09,4.52,13.21,13.21,0,0,0,3.79,2.44A20.07,20.07,0,0,0,158.89,199.09Z"/><path class="cls-5" d="M182.2,200a83.06,83.06,0,0,1-.24-9.21,82.75,82.75,0,0,1,.28-9.22,83.32,83.32,0,0,1,.24,9.22A79.69,79.69,0,0,1,182.2,200Z"/><path class="cls-12" d="M145.52,179.25c.11-2.24.34-4.76.34-4.76s5.52-.61,5.85-6.31,0-18.84,0-18.84l-10.05-5.12-11,8.72,1.67,28.51,10.18.64A2.93,2.93,0,0,0,145.52,179.25Z"/><path class="cls-13" d="M146.51,163.67s0,.11-.09.25a.77.77,0,0,1-.63.28c-.64,0-1.26-.74-1.48-1.6a2.62,2.62,0,0,1,0-1.27,1.07,1.07,0,0,1,.6-.86.5.5,0,0,1,.65.24c.07.17,0,.27,0,.26s0-.09-.1-.2a.36.36,0,0,0-.47-.1.91.91,0,0,0-.42.72,2.73,2.73,0,0,0,.05,1.13c.2.77.74,1.4,1.22,1.46a.69.69,0,0,0,.53-.15C146.45,163.75,146.49,163.67,146.51,163.67Z"/><path class="cls-5" d="M155.14,146.26c-.77-2.62-3.56-3.93-6.1-4.65-3.87-1.09-8.06-1.58-11.83-.19s-8.32,3.84-8.32,8c-2.23-.19-3.51,1.77-4.39,4.19a15.7,15.7,0,0,0-1,4.6l0,0c-.28,5.47-1.81,13-5.35,17-2,2.24-4.77,3.78-5.91,6.55-1,2.42-.48,5.27-1.42,7.71-.82,2.15-2.65,3.68-4,5.55a14.85,14.85,0,0,0-1,14.39,18.2,18.2,0,0,0,10.89,9.41,25.38,25.38,0,0,0,14.35.13,24,24,0,0,0,9.62-4.76,16.09,16.09,0,0,0,5.52-9.32c.71-4.09-.44-8.24-1.28-12.29-2.66-12.84-1.9-13.5,1.46-25.41.08-.21.12-.43.18-.65s.09-.3.13-.47h0a7.44,7.44,0,0,0,.15-1.42A2.73,2.73,0,0,1,144,164a3,3,0,0,1-.68-3,4.33,4.33,0,0,1,2.58-2.43c1.11-.47,2.3-.7,3.39-1.22,2.31-1.1,3.91-3.38,5-5.77A7.89,7.89,0,0,0,155.14,146.26Z"/><path class="cls-6" d="M146.91,163.92a4.24,4.24,0,0,1,.52,1c.3.63.7,1.52,1.14,2.54l.08.2h-.21l-1,.09c-.69.05-1.28.13-1.95.12a.33.33,0,0,1-.26-.22.55.55,0,0,1,0-.28c0-.16.07-.27.1-.41l.18-.7a6.06,6.06,0,0,1,.42-1.39,6.67,6.67,0,0,1-.21,1.43l-.14.72c0,.24-.14.6,0,.57.5,0,1.21-.1,1.87-.15l1-.08-.13.21c-.43-1-.79-1.93-1-2.59A4,4,0,0,1,146.91,163.92Z"/><path class="cls-5" d="M112.67,248.12,157,246.76,176.3,322.1l-3.55,86.42H149.28l2.91-84.58L135,271.5l2.64,140.37-23.7.35-2.49-132c-.11-3.66-1.31-11.94-.86-15.57Z"/><path class="cls-7" d="M140.94,272.56a8.29,8.29,0,0,1-2.17-.13c-1.34-.15-3.17-.43-5.18-.84s-3.82-.85-5.11-1.22a8.47,8.47,0,0,1-2-.73c0-.14,3.26.64,7.26,1.44S141,272.41,140.94,272.56Z"/><path class="cls-7" d="M172.53,403.78c0,.15-5.31.26-11.86.26s-11.87-.11-11.87-.26,5.31-.26,11.87-.26S172.53,403.64,172.53,403.78Z"/><path class="cls-7" d="M137.47,408.23c0,.14-5.16.26-11.52.26s-11.51-.12-11.51-.26S119.59,408,126,408,137.47,408.08,137.47,408.23Z"/><path class="cls-7" d="M134.41,407.87c-.14,0-.76-30.67-1.39-68.51s-1-68.51-.87-68.51.77,30.66,1.39,68.51S134.56,407.86,134.41,407.87Z"/><path class="cls-7" d="M169.38,403.78a2.47,2.47,0,0,1,0-.4l0-1.2c0-1.08.08-2.63.14-4.61.14-4,.34-9.8.58-16.93.55-14.32,1.31-34.05,2.14-55.85,0-.2,0-.4,0-.59v.08c-5.25-21-10-40.06-13.45-53.86-1.69-6.86-3.06-12.43-4-16.31-.46-1.9-.81-3.4-1.06-4.44-.12-.49-.2-.87-.27-1.15a1.81,1.81,0,0,1-.07-.4,2.25,2.25,0,0,1,.12.38c.08.28.18.66.32,1.15.27,1,.66,2.52,1.16,4.41,1,3.87,2.41,9.42,4.17,16.28,3.48,13.78,8.28,32.78,13.6,53.81v.08c0,.18,0,.38,0,.58-.89,21.8-1.7,41.53-2.29,55.85-.31,7.12-.57,12.9-.75,16.92-.1,2-.18,3.52-.23,4.6,0,.51-.06.9-.08,1.2A1.51,1.51,0,0,1,169.38,403.78Z"/><path class="cls-7" d="M161.73,322.45a27.71,27.71,0,0,1-5.18,1.15c-2.16.37-4,.62-4.83.67v-.2c.26.07.41.13.4.17s-.16,0-.44,0l-.6,0,.6-.17c.78-.23,2.62-.61,4.78-1A26.1,26.1,0,0,1,161.73,322.45Z"/><path class="cls-7" d="M161.28,325.32a28.08,28.08,0,0,1-4.66-.21,25.79,25.79,0,0,1-4.65-.52,17.48,17.48,0,0,1,4.69,0A17.54,17.54,0,0,1,161.28,325.32Z"/><path class="cls-14" d="M112.48,249.71a6.08,6.08,0,0,0,4.37,2.33,20.21,20.21,0,0,0,5.38-.1c11.45-1.27,23.58-2.44,34.78-5.18-14.5.82-29.83.54-44.34,1.36l-.15,1.24"/><g class="cls-11"><polygon points="127.43 270.16 135.61 301.89 135.03 271.5 127.43 270.16"/></g></g></g></svg>